<svg xmlns="http://www.w3.org/2000/svg" xmlns:xlink="http://www.w3.org/1999/xlink" version="1.1" x="0px" y="0px" viewBox="0 0 100 100" enable-background="new 0 0 100 100" xml:space="preserve"><path fill="none" stroke-width="2" stroke="#4d6dc3" stroke-linecap="round" stroke-linejoin="round" stroke-miterlimit="10" d="M40,73.65V80  c0,5.522-4.479,10.001-9.999,10.001h-2.5c-1.381,0-2.501-1.12-2.501-2.501c0-1.382,1.12-2.502,2.501-2.502l2.5,0.004  c2.761,0,5-2.239,5-5.002v-4.999C36.824,75.001,38.528,74.505,40,73.65z"></path><path fill="none" stroke-width="2" stroke="#4d6dc3" stroke-linecap="round" stroke-linejoin="round" stroke-miterlimit="10" d="M40,65v-9.998  c0,3.7-2.015,6.922-4.999,8.65v6.35C37.761,70.002,40,67.763,40,65z"></path><path fill="none" stroke-width="2" stroke="#4d6dc3" stroke-linecap="round" stroke-linejoin="round" stroke-miterlimit="10" d="M35,55.002h0.002  c0,2.764-2.239,5.003-5,5.003v-0.004c-2.761,0-5-2.239-5-4.999v-9.999c0-5.522-4.477-10.001-10-10.001h-2.5  c-1.382,0-2.499,1.12-2.499,2.501c0,1.38,1.117,2.5,2.499,2.5h2.5c2.761,0,5,2.239,5,5L20,55.002C20,60.524,24.479,65,30.001,65l0,0  C35.521,65,40,60.524,40,55.002l0,0V65c0,2.763-2.239,5.002-5,5.002l-9.998-0.003c-5.522,0-10.001,4.479-10.001,10.001v2.501  c0,1.381,1.12,2.497,2.501,2.497c1.38,0,2.5-1.116,2.5-2.497V80c0-2.764,2.239-5.003,5-5.003L35,75.001  c5.521,0,9.999-4.479,9.999-10.001v-9.998V87.5c0,1.381,1.121,2.501,2.501,2.501c1.381,0,2.5-1.12,2.5-2.501V55.002l0,0v22.5  C50,78.884,51.12,80,52.501,80c1.38,0,2.5-1.116,2.5-2.498v-22.5v4.999c0,8.282,6.716,15,14.999,15l4.999-0.004  c2.763,0,5.002,2.239,5.002,5.003l-0.003,2.501c0,1.381,1.119,2.501,2.501,2.501c1.38,0,2.499-1.12,2.499-2.501V80  c0-5.522-4.477-10.001-9.999-10.001H70c-5.523,0-9.999-4.476-9.999-9.998v-4.999v4.999c0,5.522,4.476,9.998,9.999,9.998h9.998  c5.522,0,9.999-4.476,9.999-9.998h0.004c0-5.522-4.478-9.999-10.001-9.999h-2.502c-1.381,0-2.501,1.121-2.501,2.503  c0,1.378,1.12,2.497,2.501,2.497H80c2.761,0,5.002,2.239,5.002,4.999h-0.004c0,2.763-2.239,4.999-5,4.999H70  c-2.761,0-5-2.236-5-4.999v-4.999v-30l0,0v-0.001c0-8.284-6.717-15-15-15c-8.284,0-14.998,6.716-14.998,15v0.001H35V55.002z"></path><path fill="none" stroke-width="2" stroke="#4d6dc3" stroke-linecap="round" stroke-linejoin="round" stroke-miterlimit="10" d="M64.996,74.126  c-1.863-0.658-3.554-1.675-4.995-2.967V80c0,5.522,4.476,9.997,9.998,9.997H72.5c1.381,0,2.497-1.119,2.497-2.501  c0-1.378-1.116-2.498-2.497-2.498h-2.501c-2.764,0-5.003-2.239-5.003-5.002V74.126z"></path><circle fill="none" stroke-width="2" stroke="#4d6dc3" stroke-linecap="round" stroke-linejoin="round" stroke-miterlimit="10" cx="44.375" cy="32.501" r="3.125"></circle><circle fill="none" stroke-width="2" stroke="#4d6dc3" stroke-linecap="round" stroke-linejoin="round" stroke-miterlimit="10" cx="55.624" cy="32.501" r="3.126"></circle><path fill="none" stroke-width="2" stroke="#4d6dc3" stroke-linecap="round" stroke-linejoin="round" stroke-miterlimit="10" d="M42.5,43.447  c4.143,4.143,10.857,4.143,15,0.002C53.357,47.59,46.643,47.59,42.5,43.447z"></path></svg>